<svg width="72" height="72" viewBox="0 0 72 72" fill="none" xmlns="http://www.w3.org/2000/svg">
<path d="M62.3415 7C67.6754 7 72 11.3754 72 16.7735V49.3332C72 54.7312 67.6754 59.1067 62.3415 59.1067H29.8885L16.8556 70.3573C15.1456 71.8334 12.5122 70.6033 12.5122 68.3284V59.1067H9.65854C4.32456 59.1067 0 54.7312 0 49.3332V16.7735C0 11.3754 4.32456 7 9.65854 7H62.3415ZM62.3415 12.3329H9.65854C7.23358 12.3329 5.26829 14.3213 5.26829 16.7735V49.3332C5.26829 51.7854 7.23358 53.7738 9.65854 53.7738H15.1463C16.6011 53.7738 17.7805 54.9676 17.7805 56.4402V62.5501L27.2085 54.4113C27.6853 53.9998 28.2913 53.7738 28.9178 53.7738H62.3415C64.7664 53.7738 66.7317 51.7854 66.7317 49.3332V16.7735C66.7317 14.3213 64.7664 12.3329 62.3415 12.3329ZM20.1951 29.2204C22.6198 29.2204 24.5854 31.2101 24.5854 33.6645C24.5854 36.1189 22.6198 38.1086 20.1951 38.1086C17.7705 38.1086 15.8049 36.1189 15.8049 33.6645C15.8049 31.2101 17.7705 29.2204 20.1951 29.2204ZM36 29.2204C38.4247 29.2204 40.3903 31.2101 40.3903 33.6645C40.3903 36.1189 38.4247 38.1086 36 38.1086C33.5753 38.1086 31.6098 36.1189 31.6098 33.6645C31.6098 31.2101 33.5753 29.2204 36 29.2204ZM51.8049 29.2204C54.2295 29.2204 56.1951 31.2101 56.1951 33.6645C56.1951 36.1189 54.2295 38.1086 51.8049 38.1086C49.3802 38.1086 47.4146 36.1189 47.4146 33.6645C47.4146 31.2101 49.3802 29.2204 51.8049 29.2204Z" fill="black"/>
</svg>
