<svg width="72" height="72" viewBox="0 0 72 72" fill="none" xmlns="http://www.w3.org/2000/svg">
<path fill-rule="evenodd" clip-rule="evenodd" d="M2.61384 13C1.19177 13 0.0385909 14.1428 0.0373041 15.5532L1.05599e-06 56.4421C-0.000617539 57.1203 0.270565 57.7709 0.753827 58.2507C1.23709 58.7304 1.8928 59 2.57654 59H69.4235C70.8465 59 72 57.8558 72 56.4444V15.5556C72 14.1442 70.8465 13 69.4235 13H2.61384ZM5.18581 20.5661L5.15541 53.8889H66.8469V20.5424L37.4971 41.4821C36.5981 42.1235 35.3864 42.1233 34.4875 41.4817L5.18581 20.5661ZM61.43 18.1111H10.5683L35.9929 36.2592L61.43 18.1111Z" fill="black"/>
</svg>
