<svg width="72" height="72" viewBox="0 0 72 72" fill="none" xmlns="http://www.w3.org/2000/svg">
<path d="M71.9601 31.6522C70.6169 23.7576 66.8502 16.4754 61.1816 10.8138C55.513 5.15228 48.2229 1.39141 40.3205 0.051879C39.998 -0.0158245 39.665 -0.0172769 39.3418 0.0476101C39.0187 0.112497 38.7121 0.242368 38.4408 0.429326C38.1694 0.616284 37.939 0.856423 37.7634 1.13514C37.5879 1.41386 37.4709 1.72534 37.4196 2.05064C37.3458 2.37707 37.3405 2.71527 37.4042 3.04384C37.468 3.3724 37.5992 3.68418 37.7898 3.95945C37.9771 4.23004 38.2189 4.45866 38.4996 4.63073C38.7804 4.8028 39.0939 4.91454 39.4202 4.95883C46.3272 6.12146 52.6987 9.40907 57.6458 14.363C62.5899 19.3147 65.884 25.6701 67.0786 32.5617C67.1714 33.1111 67.4528 33.6111 67.8745 33.9759C68.2962 34.3406 68.8318 34.5473 69.3894 34.5604H69.9595C70.6091 34.4366 71.1836 34.0617 71.5582 33.5172C71.9328 32.9727 72.0772 32.3025 71.9601 31.6522Z" fill="black"/>
<path d="M38.8501 17.7409C42.677 18.431 46.2018 20.272 48.9531 23.0176C51.739 25.7291 53.5859 29.2583 54.2247 33.0913C54.3282 33.6764 54.6344 34.2063 55.0899 34.5883C55.5454 34.9702 56.1209 35.1797 56.7155 35.18H57.1056C57.7532 35.0562 58.326 34.6828 58.7003 34.1405C59.0746 33.5982 59.2204 32.9306 59.1062 32.2818C58.2231 27.4512 55.9174 22.9938 52.4842 19.4798C49.0512 15.9532 44.5782 13.6172 39.7203 12.8139C39.3936 12.7402 39.0551 12.7349 38.7262 12.7986C38.3973 12.8622 38.0853 12.9934 37.8098 13.1837C37.5405 13.3703 37.3126 13.6103 37.1405 13.8889C36.9684 14.1675 36.8557 14.4786 36.8095 14.8027C36.7389 15.1251 36.7362 15.4586 36.8017 15.7821C36.8671 16.1055 36.9992 16.4118 37.1896 16.6815C37.3779 16.9633 37.6228 17.2029 37.9086 17.3853C38.1944 17.5676 38.515 17.6887 38.8501 17.7409Z" fill="black"/>
<path d="M57.0056 44.1245C56.3167 43.3567 55.4752 42.7407 54.5349 42.3157C53.5946 41.8907 52.576 41.666 51.5439 41.656C50.517 41.6819 49.5057 41.9128 48.5695 42.335C47.6332 42.7572 46.791 43.3622 46.0923 44.1145L41.5709 48.6217L41.2808 48.4618C41.0908 48.3718 40.9007 48.2719 40.6606 48.132C40.3486 47.9925 40.0447 47.8357 39.7503 47.6623L39.2102 47.3725C34.5443 44.3787 30.4098 40.6298 26.9765 36.2794C25.4357 34.4555 24.1379 32.44 23.1153 30.2831C24.2156 29.2837 25.306 28.1644 26.3763 27.0951L27.6467 25.8259C28.4131 25.1168 29.0321 24.2637 29.468 23.3154C29.904 22.3671 30.1485 21.3421 30.1874 20.2993C30.1615 19.255 29.9239 18.2268 29.4889 17.2769C29.0539 16.327 28.4306 15.4751 27.6567 14.7727L23.5754 10.6253C23.1153 10.1656 22.6451 9.69588 22.245 9.21618C21.3648 8.2168 20.3845 7.27739 19.4442 6.41792C18.7515 5.68381 17.9202 5.09392 16.9983 4.68227C16.0764 4.27061 15.082 4.04533 14.0725 4.01941C12.0132 4.07047 10.0546 4.91987 8.61089 6.38794L3.46933 11.5647C1.47909 13.4829 0.2529 16.0573 0.0182795 18.8102C-0.122029 22.6843 0.538584 26.5456 1.95887 30.1532C4.65864 37.215 8.57567 43.7497 13.5324 49.4612C20.0233 57.2445 28.0934 63.5631 37.2096 67.9996C41.3896 70.198 45.9605 71.5561 50.6637 71.9971H51.664C53.3562 72.0344 55.0365 71.7063 56.5902 71.0354C58.1439 70.3645 59.5344 69.3665 60.6667 68.1096L60.7767 67.9996C61.5675 67.0678 62.4197 66.1897 63.3275 65.3713C64.0721 64.7705 64.7586 64.1013 65.3781 63.3725C68.6091 60.0546 68.6091 55.6473 65.3781 52.3793L57.0056 44.1245ZM22.8652 23.6072C21.6048 24.8664 20.4145 26.0557 19.1341 27.245L19.0541 27.3249C18.549 27.7967 18.1915 28.4045 18.0247 29.0748C17.8578 29.7451 17.8888 30.4494 18.1138 31.1026C18.1222 31.2329 18.1751 31.3564 18.2638 31.4524C19.5017 34.3189 21.153 36.9889 23.1653 39.3774C26.9475 44.1531 31.4893 48.2755 36.6094 51.5798C37.0295 51.8397 37.4496 52.0695 37.8498 52.2894L38.51 52.6492C38.8184 52.7854 39.119 52.9389 39.4102 53.1089L40.0004 53.4287L40.1805 53.5586H40.2705C40.9443 53.921 41.7223 54.0413 42.4742 53.8995C43.2262 53.7576 43.9066 53.3621 44.4018 52.7791L49.5833 47.6023C50.1043 47.0344 50.8166 46.6786 51.5839 46.6029C52.3106 46.6995 52.9782 47.0543 53.4645 47.6023L61.757 55.8772C62.0942 56.1447 62.3614 56.49 62.5357 56.8834C62.7099 57.2768 62.786 57.7065 62.7573 58.1358C62.5983 58.8521 62.2208 59.5015 61.677 59.9946C61.3039 60.4581 60.8959 60.8924 60.4566 61.2938L59.9665 61.7635L59.3963 62.3332C58.5738 63.1091 57.802 63.9369 57.0856 64.8116C56.4248 65.552 55.6067 66.1355 54.6912 66.5193C53.7756 66.9032 52.7858 67.0778 51.794 67.0302H51.1238C47.0729 66.535 43.1395 65.3378 39.5003 63.4924C31.0271 59.3741 23.5261 53.5049 17.4936 46.2731C12.8859 41.0022 9.21517 34.9824 6.64029 28.4742C5.39367 25.5866 4.83221 22.4502 4.99979 19.3099C5.14432 17.7461 5.82652 16.2806 6.93038 15.1625L12.0319 10.0657C12.2811 9.77337 12.5867 9.53423 12.9304 9.36253C13.2741 9.19082 13.649 9.09007 14.0325 9.06627C14.4162 9.0895 14.7912 9.19001 15.135 9.36175C15.4788 9.5335 15.7843 9.77293 16.0331 10.0657C16.6533 10.6353 17.2035 11.2049 17.7937 11.8046L18.734 12.8039L24.2356 18.2905C24.8144 18.8031 25.1728 19.5191 25.2359 20.2893C25.1728 21.0594 24.8144 21.7755 24.2356 22.2881L22.8652 23.6072Z" fill="black"/>
</svg>
